PathFileType	3	(X/Y/Z)	D:\Jess\PFP\Labelled\PA07\20250627\SRRun01.trc
DataRate	CameraRate	NumFrames	NumMarkers	Units	OrigDataRate	OrigDataStartFrame	OrigNumFrames
250.0	250.0	4	37	mm	250.0	35937	2501
Frame#	Time	C7			T10			CLAV			LSHO			RSHO			LASIS			RASIS			LPSIS			RPSIS			LILCR			RILCR			LGTR			LTHI			LLTHI			LLEP			LMEP			LPSH			LLSH			LDSH			LLMAL			LMMAL			LTOE			L5TH			LHEE			RGTR			RTHI			RLTHI			RLEP			RMEP			RPSH			RLSH			RDSH			RLMAL			RMMAL			RTOE			R5TH			RHEE			
		X1	Y1	Z1	X2	Y2	Z2	X3	Y3	Z3	X4	Y4	Z4	X5	Y5	Z5	X6	Y6	Z6	X7	Y7	Z7	X8	Y8	Z8	X9	Y9	Z9	X10	Y10	Z10	X11	Y11	Z11	X12	Y12	Z12	X13	Y13	Z13	X14	Y14	Z14	X15	Y15	Z15	X16	Y16	Z16	X17	Y17	Z17	X18	Y18	Z18	X19	Y19	Z19	X20	Y20	Z20	X21	Y21	Z21	X22	Y22	Z22	X23	Y23	Z23	X24	Y24	Z24	X25	Y25	Z25	X26	Y26	Z26	X27	Y27	Z27	X28	Y28	Z28	X29	Y29	Z29	X30	Y30	Z30	X31	Y31	Z31	X32	Y32	Z32	X33	Y33	Z33	X34	Y34	Z34	X35	Y35	Z35	X36	Y36	Z36	X37	Y37	Z37	

938	143.744	810.5040949869422	1380.88559200883	-804.0908489340468	832.8849826021568	1126.57686992172	-750.7380528500728	801.9554673557802	1274.743767905308	-945.3915979766641	631.0678043344722	1349.213773249801	-842.3169697840935	964.8637820435683	1359.787140162273	-879.563465695991	708.0903120794432	905.4314911782262	-892.0558205765172	916.3431851114048	873.9335925405751	-914.6497816089056	816.9240098339542	947.9701146622413	-741.5528271106497	858.3989747840517	941.3344779173607	-746.4668409613558	669.9368458500738	960.0606327724752	-841.376758435519	978.4038348364155	958.348309953196	-854.1642621346431	646.2244477900432	800.4825884072297	-838.6107259397985	710.9744390931431	659.8022471833486	-957.0386656667117	666.7059355523169	590.9938632038753	-886.8405041802636	687.641495792614	459.9097863488984	-895.8313219663609	nan	nan	nan	754.1115329606916	354.8986906845317	-919.453392913118	695.9164435029805	271.3607823636064	-815.7627137132251	764.8035898838345	190.826254339134	-831.7539011354688	741.0408403726107	106.3461824883788	-747.4788607974168	nan	nan	nan	753.4462429267503	63.26442381712661	-889.1091926050524	713.6385024480442	40.47409819038701	-865.0645266211952	797.0098897774704	87.39444193420893	-664.6842376117884	984.0195609697898	754.8093082241526	-840.5481439507139	906.3593038286923	618.0367093335574	-944.2492850018313	957.2818939329712	547.1467256805209	-861.7833567138149	938.2081105377072	438.3839417466732	-841.8435334002993	nan	nan	nan	897.8507034032077	344.1649288335606	-805.4591783988344	949.6751910048838	372.1135146157344	-665.5144150650034	899.3289424178087	299.4791632430352	-610.143013184093	926.5086313373349	313.1569804021603	-500.5401891881459	nan	nan	nan	923.56787867666	164.3171855617165	-489.1879511657617	956.5897373848172	176.8319613954148	-450.2722467334846	868.1254214551499	380.9353573313617	-464.6298543662394	
939	143.748	809.793581441316	1381.205305825908	-804.3483598923223	832.4834482537113	1126.848237408951	-750.0828125935014	802.5652990577184	1274.607879723752	-945.1558564728167	630.927504960761	1349.272742940885	-844.0179667513091	964.7915716735873	1360.054490151422	-878.4525079732067	708.505773884099	905.149017966047	-891.3631623765652	916.9780021058366	874.3038074429646	-913.6150273552691	816.9298334720499	948.2101453667906	-740.8028044263124	858.401692217513	941.6148550761992	-745.5967233836801	670.2266340836884	959.8272660352731	-840.3345283350111	978.68019985137	958.8094403444668	-852.2441166880931	646.6437176214544	799.9965786958561	-836.9128582401735	710.7829569462933	657.5527896283184	-953.5446806208589	667.138310438491	589.90651952984	-881.9917539650276	687.9225781626161	458.5414405935879	-889.2132787024394	nan	nan	nan	754.2108845171243	353.2594110969032	-911.7484629800707	696.0756904767687	271.0062801791263	-807.1799728673758	764.8129109653207	190.3918557528727	-822.0907531890514	740.8252162666946	106.7652082664683	-736.9968603862471	nan	nan	nan	753.3810921696758	63.14187714739989	-878.17926600792	713.6211502214804	40.46136657313938	-854.0877064619486	796.8345351573025	87.86409179014562	-653.9077329247801	984.3779013064246	755.0875042432339	-840.0179543528859	906.3961250221471	619.702687853219	-947.1001894034149	957.471530365353	547.8089898874375	-866.1837928841164	938.219846540703	438.9178079456629	-848.6489253094221	nan	nan	nan	897.6028988988134	344.6183167081786	-813.1881268154729	949.9327497897012	371.832038240689	-673.3525672916155	899.5932061874381	298.9542398828692	-618.1572262318919	927.1088321214734	311.9074802988461	-508.6131191938222	nan	nan	nan	924.3190467612287	162.9931500080104	-499.5750241959685	957.669230418039	174.935794489137	-460.7562982980835	868.9527432975495	379.1422322569797	-471.1516698327439	
940	143.752	809.0849480989173	1381.774665804659	-804.5920534856252	832.0395085653486	1127.308936449349	-749.4745040585301	803.2528420737439	1274.726492738484	-944.9459819239518	630.8962361267113	1349.636884993067	-845.7911368095621	964.7344724575868	1360.557123063832	-877.2663567865749	708.9218753513683	905.001374763131	-890.7217765418908	917.6049003004329	874.9931908143656	-912.6034218610475	816.8377748353829	948.7002070150182	-740.1002651410248	858.3137244196188	942.1630493185799	-744.7609602580586	670.4978897720392	959.8760353803372	-839.4486624266214	978.9343856536912	959.5793873020261	-850.3674537422106	647.0777642514112	799.6349445106342	-835.1981791350008	710.8043017228739	655.4013683589886	-949.8125711641565	667.6424433134883	588.9708313634248	-876.9228894275579	688.2252964837073	457.3230880447264	-882.2305627859315	nan	nan	nan	754.3576186913725	351.7904377628217	-903.7278265768334	696.2614126871091	270.7407670855321	-798.371731332468	764.8466703678857	190.0644685961525	-812.3241767474635	740.6421514615514	107.2249956314351	-726.5004661134381	nan	nan	nan	753.3475413739236	62.97334751730176	-867.228629511617	713.6312561386017	40.4214426511254	-843.0702363837833	796.6884963857827	88.44554467135002	-643.1422494435147	984.7893227974724	755.7710873689205	-839.5072841110093	906.4783907113659	621.6833725939222	-949.9120934077023	957.6901143884572	548.8227083183156	-870.5902076977352	938.2425551150475	439.8106638572273	-855.4000245193154	nan	nan	nan	897.3808933218693	345.3787718268753	-820.9538352754462	950.1826696044035	371.6525957683655	-681.1904083888033	899.8625824444993	298.4079784447206	-626.2913688154206	927.7131622593782	310.4229807674783	-516.7886462139928	nan	nan	nan	924.9777847887652	161.4628974668495	-510.2820562328147	958.6449137759129	172.7605157475733	-471.5339920235334	869.8263547007082	377.0645458014348	-477.7069060695837	
941	143.756	808.3858564715912	1382.583572662301	-804.8135981030771	831.5533398546984	1127.951784906154	-748.9192989996158	804.0157787191358	1275.0956841241	-944.7653214681711	630.9668266995967	1350.300398388588	-847.6176581458983	964.6956768957189	1361.286972426203	-876.0052094380259	709.3275666610073	904.989476147704	-890.1266979733132	918.2063501999439	875.9796138605991	-911.6237355309996	816.6585596553291	949.424737047219	-739.4476652190061	858.1459014361051	942.9621125835752	-743.9634396055749	670.7480969252319	960.1856500082821	-838.7322344419654	979.1642199817327	960.628750796042	-848.567060896043	647.5247778220122	799.4036109650071	-833.4772452586358	711.0714910246995	653.386239119799	-945.8642741581821	668.2169361521725	588.2075197963538	-871.6833032506175	688.5503356808528	456.2846549748727	-874.9387717103755	nan	nan	nan	754.5597198029956	350.5165289221316	-895.4265748172503	696.4703612226101	270.5901789739003	-789.3696136032916	764.9072991174728	189.8594188038394	-802.4727403501538	740.4912526735853	107.7444655413041	-715.9950016122632	nan	nan	nan	753.3449868250552	62.76219820360306	-856.2570514709441	713.6662482657093	40.36004726163018	-832.0115915995943	796.5662459949131	89.16360156120396	-632.392833595478	985.2484872201961	756.833867659764	-839.0498536036908	906.6096324169126	623.9717295256586	-952.6775043160649	957.9366884424797	550.1756952820816	-874.9842160987636	938.2797765779783	441.0543610121891	-862.0734162163221	nan	nan	nan	897.1921415674782	346.4413716146861	-828.7346229965461	950.4275023381476	371.5682323007041	-689.0057084520481	900.137186583709	297.8390394240342	-634.5293110477847	928.3169654139242	308.7071517461789	-525.0526546724526	nan	nan	nan	925.5486712948119	159.7425724480227	-521.2875874600031	959.5175852026174	170.326481253406	-482.5856012959467	870.7335671544386	374.6977388760634	-484.2929303548308	
